<?xml version="1.0" encoding="UTF-8"?>
<svg width="170px" height="170px" viewBox="0 0 170 170" version="1.1" xmlns="http://www.w3.org/2000/svg" xmlns:xlink="http://www.w3.org/1999/xlink">
    <!-- Generator: Sketch 51.3 (57544) - http://www.bohemiancoding.com/sketch -->
    <title>p5js</title>
    <desc>Created with Sketch.</desc>
    <defs></defs>
    <g id="Page-1" stroke="none" stroke-width="1" fill="none" fill-rule="evenodd">
        <g id="p5js" fill-rule="nonzero">
            <circle id="Shape" fill="#FFFFFF" cx="85" cy="85" r="85"></circle>
            <path d="M85,170 C38.0557963,170 -3.55271368e-15,131.944204 -3.55271368e-15,85 C-3.55271368e-15,38.0557963 38.0557963,0 85,0 C131.944204,0 170,38.0557963 170,85 C170,131.944204 131.944204,170 85,170 Z M41.254,43.631 L27.525,43.631 L27.525,129.59 L41.852,129.59 L41.852,93.295 L42.09,93.295 C43.92,96.163 46.525,98.43 49.91,100.102 C53.292,101.772 57.013,102.608 61.073,102.608 C65.449,102.608 69.37,101.792 72.833,100.161 C76.296,98.533 79.239,96.341 81.668,93.595 C84.094,90.849 85.967,87.626 87.279,83.925 C88.593,80.224 89.25,76.264 89.25,72.046 C89.25,67.828 88.573,63.888 87.22,60.226 C85.866,56.566 83.956,53.382 81.49,50.675 C79.022,47.97 76.076,45.841 72.654,44.286 C69.231,42.735 65.491,41.958 61.431,41.958 C58.805,41.958 56.435,42.258 54.328,42.854 C52.218,43.452 50.328,44.21 48.657,45.122 C46.985,46.039 45.571,47.073 44.418,48.227 C43.263,49.381 42.328,50.516 41.613,51.629 L41.254,51.629 L41.254,43.631 Z M74.684,72.045 C74.684,69.816 74.345,67.607 73.669,65.418 C72.991,63.23 71.977,61.26 70.624,59.508 C69.27,57.76 67.56,56.346 65.49,55.27 C63.42,54.196 60.993,53.659 58.208,53.659 C55.581,53.659 53.232,54.216 51.164,55.331 C49.1359024,56.4125015 47.3326857,57.8708907 45.851,59.628 C44.3715496,61.3907132 43.2374369,63.4163748 42.508,65.599 C41.75,67.828 41.374,70.058 41.374,72.285 C41.374,74.514 41.75,76.723 42.508,78.91 C43.2466367,81.0706705 44.3801973,83.0753401 45.851,84.822 C47.3229575,86.5729848 49.1291399,88.0130353 51.164,89.058 C53.232,90.134 55.581,90.669 58.208,90.669 C60.993,90.669 63.42,90.114 65.49,88.999 C67.559,87.884 69.27,86.452 70.624,84.7 C71.977,82.95 72.991,80.96 73.669,78.731 C74.3358228,76.5647249 74.6778729,74.3115751 74.684,72.045 Z M146.167,90.384 C144.694,87.083 142.646,84.296 140.019,82.027 C137.393,79.759 134.308,78.027 130.767,76.834 C127.224,75.641 123.383,75.043 119.246,75.043 C117.733,75.043 116.042,75.125 114.172,75.281 C112.301,75.443 110.69,75.72 109.337,76.119 L110.172,57.851 L144.676,57.851 L144.676,44.958 L96.562,44.958 L95.129,91.159 C96.4,90.524 97.854,89.927 99.486,89.368 C101.137299,88.8062484 102.809907,88.3092029 104.5,87.878 C106.230033,87.4372146 107.98436,87.0979689 109.754,86.862 C111.435641,86.6315352 113.130656,86.5122762 114.828,86.505 C117.135,86.505 119.404,86.763 121.633,87.28 C123.861,87.798 125.871,88.714 127.662,90.026 C129.453,91.338 130.904,93.071 132.02,95.219 C133.133,97.367 133.691,100.074 133.691,103.338 C133.691,105.885 133.273,108.174 132.437,110.203 C131.602,112.23 130.467,113.924 129.036,115.275 C127.59051,116.637444 125.884271,117.693298 124.02,118.379 C122.11,119.098 120.081,119.455 117.931,119.455 C114.112,119.455 110.807,118.439 108.022,116.41 C105.235,114.381 103.247,111.695 102.052,108.351 L101.893,108.41 L91.525,118.125 C93.622,121.545 96.325,124.406 99.665,126.678 C104.519,129.979 110.488,131.633 117.574,131.633 C121.792,131.633 125.771,130.955 129.512,129.604 C133.252,128.252 136.516,126.301 139.302,123.752 C142.087,121.207 144.296,118.082 145.929,114.381 C147.559,110.68 148.375,106.483 148.375,101.785 C148.376,97.487 147.64,93.689 146.167,90.384 Z" id="Shape-Copy" fill="#F8E71C"></path>
        </g>
    </g>
</svg>